<svg width="36" height="36" viewBox="0 0 36 36" fill="none" xmlns="http://www.w3.org/2000/svg">
<path fill-rule="evenodd" clip-rule="evenodd" d="M35.94 2.37419V33.6264C35.94 34.248 35.6931 34.8442 35.2535 35.2838C34.8139 35.7233 34.2177 35.9703 33.5961 35.9703H2.34391C1.72227 35.9703 1.12608 35.7233 0.686516 35.2838C0.246947 34.8442 0 34.248 0 33.6264V2.37419C0 1.75254 0.246947 1.15636 0.686516 0.716789C1.12608 0.27722 1.72227 0.0302734 2.34391 0.0302734H33.5961C34.2177 0.0302734 34.8139 0.27722 35.2535 0.716789C35.6931 1.15636 35.94 1.75254 35.94 2.37419ZM2.34391 34.4077H7.81304V1.59288H2.34391C2.1367 1.59288 1.93797 1.6752 1.79145 1.82172C1.64492 1.96824 1.56261 2.16697 1.56261 2.37419V33.6264C1.56261 33.8336 1.64492 34.0323 1.79145 34.1788C1.93797 34.3253 2.1367 34.4077 2.34391 34.4077ZM34.3774 2.37419C34.3774 2.16697 34.2951 1.96824 34.1486 1.82172C34.002 1.6752 33.8033 1.59288 33.5961 1.59288H9.37565V34.4077H33.5961C33.8033 34.4077 34.002 34.3253 34.1486 34.1788C34.2951 34.0323 34.3774 33.8336 34.3774 33.6264V2.37419Z" fill="#727271"/>
<path d="M21.5015 10.031C16.8068 10.031 13.0009 13.8368 13.0009 18.5316C13.0009 23.2265 16.8068 27.0322 21.5015 27.0322C26.1965 27.0322 30.0021 23.2265 30.0021 18.5316C30.0021 13.8368 26.1965 10.031 21.5015 10.031ZM21.5015 25.9863C17.4002 25.9863 14.0635 22.6328 14.0635 18.5315C14.0635 14.4303 17.4002 11.0935 21.5015 11.0935C25.6028 11.0935 28.9395 14.4303 28.9395 18.5315C28.9395 22.6328 25.6028 25.9863 21.5015 25.9863ZM24.894 15.4211L19.9066 20.4399L17.6605 18.1939C17.4531 17.9865 17.1168 17.9865 16.909 18.1939C16.7016 18.4014 16.7016 18.7377 16.909 18.9452L19.5386 21.575C19.7461 21.7822 20.0824 21.7822 20.2901 21.575C20.3141 21.5511 20.3345 21.5251 20.3531 21.498L25.6458 16.1726C25.853 15.9652 25.853 15.6289 25.6458 15.4211C25.4381 15.2137 25.1018 15.2137 24.894 15.4211Z" fill="#727271"/>
</svg>
