<svg width="30" height="18" viewBox="0 0 30 18" fill="none" xmlns="http://www.w3.org/2000/svg">
<path d="M0.696289 17.0002L4.05629 0.200195H7.96829L4.60829 17.0002H0.696289Z" fill="#727271"/>
<path d="M18.4113 3.8962C19.5153 3.8962 20.4513 4.1282 21.2193 4.5922C21.9873 5.0402 22.5313 5.7042 22.8513 6.5842C23.1713 7.4642 23.2033 8.5522 22.9473 9.8482L21.5073 17.0002H17.7633L19.1553 10.0882C19.3473 9.1442 19.2673 8.4162 18.9153 7.9042C18.5793 7.3922 17.9553 7.1362 17.0433 7.1362C16.0993 7.1362 15.3073 7.4082 14.6673 7.9522C14.0433 8.4962 13.6113 9.3282 13.3713 10.4482L12.0753 17.0002H8.33129L10.8993 4.0882H14.4513L13.7073 7.7362L13.1793 6.6322C13.8033 5.6882 14.5713 5.0002 15.4833 4.5682C16.4113 4.1202 17.3873 3.8962 18.4113 3.8962Z" fill="#727271"/>
<path d="M26.629 17.1922C25.989 17.1922 25.461 16.9922 25.045 16.5922C24.629 16.1762 24.421 15.6562 24.421 15.0322C24.421 14.2802 24.661 13.6802 25.141 13.2322C25.637 12.7682 26.229 12.5362 26.917 12.5362C27.557 12.5362 28.077 12.7362 28.477 13.1362C28.893 13.5362 29.101 14.0562 29.101 14.6962C29.101 15.1922 28.981 15.6322 28.741 16.0162C28.517 16.3842 28.221 16.6722 27.853 16.8802C27.485 17.0882 27.077 17.1922 26.629 17.1922Z" fill="#727271"/>
</svg>
