<svg width="36" height="36" viewBox="0 0 36 36" fill="none" xmlns="http://www.w3.org/2000/svg">
<path d="M28.125 14.8438C28.125 15.051 28.0427 15.2497 27.8962 15.3962C27.7497 15.5427 27.551 15.625 27.3438 15.625H14.8438C14.6365 15.625 14.4378 15.5427 14.2913 15.3962C14.1448 15.2497 14.0625 15.051 14.0625 14.8438C14.0625 14.6365 14.1448 14.4378 14.2913 14.2913C14.4378 14.1448 14.6365 14.0625 14.8438 14.0625H27.3438C27.551 14.0625 27.7497 14.1448 27.8962 14.2913C28.0427 14.4378 28.125 14.6365 28.125 14.8438ZM27.3438 20.3125H14.8438C14.6365 20.3125 14.4378 20.3948 14.2913 20.5413C14.1448 20.6878 14.0625 20.8865 14.0625 21.0938C14.0625 21.301 14.1448 21.4997 14.2913 21.6462C14.4378 21.7927 14.6365 21.875 14.8438 21.875H27.3438C27.551 21.875 27.7497 21.7927 27.8962 21.6462C28.0427 21.4997 28.125 21.301 28.125 21.0938C28.125 20.8865 28.0427 20.6878 27.8962 20.5413C27.7497 20.3948 27.551 20.3125 27.3438 20.3125ZM35.9375 2.34375V33.5938C35.9375 34.2154 35.6906 34.8115 35.251 35.251C34.8115 35.6906 34.2154 35.9375 33.5938 35.9375H2.34375C1.72215 35.9375 1.12601 35.6906 0.686468 35.251C0.24693 34.8115 0 34.2154 0 33.5938V2.34375C0 1.72215 0.24693 1.12601 0.686468 0.686468C1.12601 0.24693 1.72215 0 2.34375 0H33.5938C34.2154 0 34.8115 0.24693 35.251 0.686468C35.6906 1.12601 35.9375 1.72215 35.9375 2.34375ZM2.34375 34.375H7.8125V1.5625H2.34375C2.13655 1.5625 1.93784 1.64481 1.79132 1.79132C1.64481 1.93784 1.5625 2.13655 1.5625 2.34375V33.5938C1.5625 33.8009 1.64481 33.9997 1.79132 34.1462C1.93784 34.2927 2.13655 34.375 2.34375 34.375ZM34.375 2.34375C34.375 2.13655 34.2927 1.93784 34.1462 1.79132C33.9997 1.64481 33.8009 1.5625 33.5938 1.5625H9.375V34.375H33.5938C33.8009 34.375 33.9997 34.2927 34.1462 34.1462C34.2927 33.9997 34.375 33.8009 34.375 33.5938V2.34375Z" fill="#727271"/>
</svg>
