<svg width="36" height="36" viewBox="0 0 36 36" fill="none" xmlns="http://www.w3.org/2000/svg">
<path fill-rule="evenodd" clip-rule="evenodd" d="M35.94 2.37419V33.6264C35.94 34.248 35.693 34.8442 35.2535 35.2838C34.8139 35.7233 34.2177 35.9703 33.5961 35.9703H2.34391C1.72227 35.9703 1.12608 35.7233 0.686516 35.2838C0.246947 34.8442 0 34.248 0 33.6264V2.37419C0 1.75254 0.246947 1.15636 0.686516 0.716789C1.12608 0.27722 1.72227 0.0302734 2.34391 0.0302734H33.5961C34.2177 0.0302734 34.8139 0.27722 35.2535 0.716789C35.693 1.15636 35.94 1.75254 35.94 2.37419ZM2.34391 34.4077H7.81304V1.59288H2.34391C2.1367 1.59288 1.93797 1.6752 1.79145 1.82172C1.64492 1.96824 1.56261 2.16697 1.56261 2.37419V33.6264C1.56261 33.8336 1.64492 34.0323 1.79145 34.1788C1.93797 34.3253 2.1367 34.4077 2.34391 34.4077ZM34.3774 2.37419C34.3774 2.16697 34.2951 1.96824 34.1486 1.82172C34.002 1.6752 33.8033 1.59288 33.5961 1.59288H9.37565V34.4077H33.5961C33.8033 34.4077 34.002 34.3253 34.1486 34.1788C34.2951 34.0323 34.3774 33.8336 34.3774 33.6264V2.37419Z" fill="#727271"/>
<path d="M21.5004 15.9192C21.1025 15.9192 20.7209 16.0596 20.4396 16.3097C20.1582 16.5597 20.0001 16.8989 20.0001 17.2525V17.3476C20.0001 17.4655 19.9475 17.5785 19.8537 17.6619C19.7599 17.7452 19.6327 17.7921 19.5001 17.7921C19.3674 17.7921 19.2402 17.7452 19.1465 17.6619C19.0527 17.5785 19 17.4655 19 17.3476V17.2525C19 16.6631 19.2634 16.0979 19.7323 15.6811C20.2013 15.2644 20.8372 15.0303 21.5004 15.0303H21.6164C22.1034 15.0304 22.5786 15.1631 22.9782 15.4104C23.3779 15.6577 23.6827 16.0079 23.8517 16.4138C24.0208 16.8197 24.0459 17.2618 23.9238 17.6808C23.8017 18.0998 23.5381 18.4755 23.1686 18.7574L22.3975 19.3449C22.2731 19.4399 22.1733 19.5576 22.1048 19.69C22.0363 19.8224 22.0007 19.9663 22.0004 20.1121V20.5858C22.0004 20.7037 21.9478 20.8167 21.854 20.9001C21.7602 20.9834 21.633 21.0303 21.5004 21.0303C21.3677 21.0303 21.2405 20.9834 21.1468 20.9001C21.053 20.8167 21.0003 20.7037 21.0003 20.5858V20.1121C21.0003 19.5574 21.2733 19.0312 21.7464 18.6703L22.5165 18.0836C22.7313 17.9201 22.8845 17.702 22.9556 17.4587C23.0268 17.2154 23.0123 16.9586 22.9143 16.7229C22.8162 16.4871 22.6393 16.2837 22.4072 16.14C22.1752 15.9963 21.8992 15.9192 21.6164 15.9192H21.5004ZM21.5004 23.0303C21.6993 23.0303 21.8901 22.96 22.0308 22.835C22.1714 22.71 22.2505 22.5404 22.2505 22.3636C22.2505 22.1868 22.1714 22.0172 22.0308 21.8922C21.8901 21.7672 21.6993 21.6969 21.5004 21.6969C21.3014 21.6969 21.1106 21.7672 20.97 21.8922C20.8293 22.0172 20.7503 22.1868 20.7503 22.3636C20.7503 22.5404 20.8293 22.71 20.97 22.835C21.1106 22.96 21.3014 23.0303 21.5004 23.0303Z" fill="#727271"/>
<path d="M13 18.5303C13 16.2759 13.8955 14.1139 15.4896 12.5199C17.0837 10.9258 19.2457 10.0303 21.5 10.0303C23.7543 10.0303 25.9163 10.9258 27.5104 12.5199C29.1045 14.1139 30 16.2759 30 18.5303C30 20.7846 29.1045 22.9466 27.5104 24.5407C25.9163 26.1347 23.7543 27.0303 21.5 27.0303C19.2457 27.0303 17.0837 26.1347 15.4896 24.5407C13.8955 22.9466 13 20.7846 13 18.5303ZM21.5 11.0303C19.5109 11.0303 17.6032 11.8204 16.1967 13.227C14.7902 14.6335 14 16.5411 14 18.5303C14 20.5194 14.7902 22.4271 16.1967 23.8336C17.6032 25.2401 19.5109 26.0303 21.5 26.0303C23.4891 26.0303 25.3968 25.2401 26.8033 23.8336C28.2098 22.4271 29 20.5194 29 18.5303C29 16.5411 28.2098 14.6335 26.8033 13.227C25.3968 11.8204 23.4891 11.0303 21.5 11.0303Z" fill="#727271"/>
</svg>
